<svg version="1.1" id="Layer_1" xmlns="http://www.w3.org/2000/svg" xmlns:xlink="http://www.w3.org/1999/xlink" x="0px" y="0px" viewBox="0 0 510.729 510.729" style="enable-background:new 0 0 510.729 510.729;" xml:space="preserve">
	<g>
		<path style="fill:#A0AAAD;" d="M110.684,510.729c-22.946,0-45.892-8.73-63.36-26.197c-34.935-34.935-34.935-91.785,0-126.72
		l226.278-226.278c23.287-23.287,61.184-23.27,84.471,0c23.287,23.296,23.287,61.193,0,84.48L189.122,384.964
		c-3.328,3.328-8.73,3.328-12.066,0c-3.328-3.337-3.328-8.738,0-12.066l168.951-168.951c16.631-16.631,16.631-43.699,0-60.339
		c-16.631-16.64-43.708-16.64-60.339,0L59.39,369.877c-13.696,13.705-21.239,31.915-21.239,51.294
		c0,19.371,7.543,37.589,21.239,51.294c28.288,28.288,74.291,28.271,102.579,0l280.585-280.585
		c39.919-39.927,39.919-104.892,0-144.819c-19.345-19.345-45.065-29.995-72.414-29.995c-27.349,0-53.06,10.65-72.405,29.995
		L74.477,270.319c-3.337,3.337-8.738,3.337-12.066,0c-3.337-3.328-3.337-8.73,0-12.066L285.668,34.995
		C308.23,12.425,338.234,0,370.14,0c31.915,0,61.909,12.425,84.48,34.995c22.562,22.571,34.987,52.565,34.987,84.471
		c0,31.915-12.425,61.909-34.987,84.48L174.035,484.531C156.567,501.999,133.621,510.729,110.684,510.729"></path>
	</g>
	<g></g>
	<g></g>
	<g></g>
	<g></g>
	<g></g>
	<g></g>
	<g></g>
	<g></g>
	<g></g>
	<g></g>
	<g></g>
	<g></g>
	<g></g>
	<g></g>
	<g></g>
</svg>
